<svg width="280" height="248" viewBox="0 0 280 248" fill="none" xmlns="http://www.w3.org/2000/svg">
<path d="M5.9668 4.6019C5.9668 8.7949 6.43523 10.0732 7.43065 8.64149C8.01619 7.87448 7.13788 -0.00016908 6.49378 -0.00016908C6.20101 -0.00016908 5.9668 2.04519 5.9668 4.6019Z" fill="white"/>
<path d="M35.8877 1.12543C35.0094 3.11966 33.8968 8.69328 34.2482 9.00009C35.0679 9.7671 35.712 8.38648 36.4147 4.60255C37.1759 0.409557 36.8831 -1.22673 35.8877 1.12543Z" fill="white"/>
<path d="M92.9786 3.83524C91.5148 5.98287 90.2852 7.8237 90.2852 7.92597C90.2852 8.07937 90.6365 8.18164 91.1049 8.18164C91.5733 8.18164 92.5688 7.21009 93.3885 5.98287C94.1497 4.80679 95.3794 2.96596 96.082 1.89215C97.136 0.409258 97.2531 0.000184894 96.5505 0.000184894C96.082 0.000184894 94.5011 1.73874 92.9786 3.83524Z" fill="white"/>
<path d="M122.548 3.52915C119.386 6.69946 118.098 8.59142 119.445 8.08008C120.265 7.82441 127.174 0.972442 127.174 0.461101C127.174 -0.612715 125.944 0.205431 122.548 3.52915Z" fill="white"/>
<path d="M64.1113 3.98713C62.0033 7.97559 61.7691 8.896 62.8816 8.5892C63.877 8.28239 66.3949 2.70878 66.1607 1.32816C66.0435 0.561144 65.3995 1.37929 64.1113 3.98713Z" fill="white"/>
<path d="M151.942 3.37526C148.136 5.88083 146.848 7.15918 148.077 7.15918C148.78 7.15918 157.036 1.43216 157.036 0.971954C157.036 0.153809 156.158 0.511747 151.942 3.37526Z" fill="white"/>
<path d="M181.454 2.91446C178.643 4.19281 176.359 5.5223 176.359 5.9825C176.359 6.49384 177.648 6.08477 180.985 4.60188C186.489 2.09631 187.836 1.27817 187.133 0.869094C186.841 0.715692 184.264 1.63611 181.454 2.91446Z" fill="white"/>
<path d="M210.789 3.16938C207.92 3.98752 205.636 4.90794 205.636 5.16361C205.636 5.82835 206.105 5.77721 211.492 4.19206C214.185 3.37391 216.527 2.4535 216.644 2.14669C216.937 1.32855 216.703 1.37968 210.789 3.16938Z" fill="white"/>
<path d="M238.543 3.27266C236.494 3.57947 234.855 3.98854 234.913 4.19307C234.913 4.80668 235.323 4.75555 240.944 4.09081C246.214 3.42606 248.439 2.50565 244.457 2.60792C243.228 2.65905 240.593 2.96586 238.543 3.27266Z" fill="white"/>
<path d="M267.411 5.11366C267.177 5.42046 269.343 5.625 273.5 5.625C277.424 5.625 280 5.42046 280 5.11366C280 4.80685 277.599 4.60232 273.91 4.60232C270.456 4.60232 267.586 4.80685 267.411 5.11366Z" fill="white"/>
<path d="M6.66904 18.2547C5.84928 19.5842 4.50253 26.9987 4.97097 27.4077C5.67362 28.0213 5.90783 27.4077 7.02036 22.55C8.07434 18.1013 7.89868 16.2605 6.66904 18.2547Z" fill="white"/>
<path d="M34.7755 21.5279C32.8433 25.7721 32.5505 27.1016 33.4288 27.1016C34.0143 27.1016 37.5861 19.4314 37.5861 18.1531C37.5861 16.3634 36.4736 17.6418 34.7755 21.5279Z" fill="white"/>
<path d="M63.818 21.7319C60.9488 25.5669 60.4218 26.8453 61.7686 26.4873C62.4127 26.2828 67.9168 19.0729 67.9753 18.2548C68.0339 18.0502 67.6825 17.8968 67.3312 17.8968C66.9213 17.8968 65.3404 19.6354 63.818 21.7319Z" fill="white"/>
<path d="M92.7436 22.0905C90.7528 24.0336 89.2889 25.9255 89.5232 26.2323C89.8745 26.7437 97.8379 19.6872 97.8964 18.7667C97.8964 17.6929 96.0227 18.869 92.7436 22.0905Z" fill="white"/>
<path d="M122.079 21.8857C117.98 24.6981 117.161 25.5674 118.449 25.5674C119.151 25.5674 127.349 20.0449 127.642 19.3802C128.169 18.2041 125.944 19.2268 122.079 21.8857Z" fill="white"/>
<path d="M152.059 21.219C149.483 22.4974 147.14 23.5712 146.789 23.6735C146.496 23.8269 146.379 24.0826 146.672 24.3382C147.258 24.9007 157.622 20.4009 157.622 19.5828C157.622 18.6112 157.212 18.7135 152.059 21.219Z" fill="white"/>
<path d="M181.102 21.528C176.008 23.0621 175.364 23.3177 175.891 23.8291C176.594 24.4427 187.485 21.2212 187.485 20.4031C187.485 19.6872 186.489 19.8917 181.102 21.528Z" fill="white"/>
<path d="M210.672 21.2721C205.168 22.0391 204.465 22.2436 205.402 22.9595C206.105 23.522 217.054 21.8857 216.937 21.221C216.82 20.5051 216.41 20.5051 210.672 21.2721Z" fill="white"/>
<path d="M267.352 22.9073C267.528 23.1629 269.987 23.6231 272.798 23.9811C275.608 24.339 278.302 24.7481 278.712 24.8504C279.18 24.9526 279.414 24.7481 279.297 24.4413C279.122 24.0833 277.365 23.5209 275.257 23.2141C270.69 22.4982 266.942 22.3448 267.352 22.9073Z" fill="white"/>
<path d="M237.841 23.5209C237.841 23.8277 240.3 24.0322 243.989 24.0322C247.678 24.0322 250.137 23.8277 250.137 23.5209C250.137 23.2141 247.678 23.0095 243.989 23.0095C240.3 23.0095 237.841 23.2141 237.841 23.5209Z" fill="white"/>
<path d="M6.61053 36.9178C6.31776 37.5826 5.3809 39.6791 4.50258 41.571C3.03873 44.7925 2.86307 46.3776 4.20981 45.2015C4.79536 44.6391 8.30861 37.1735 8.30861 36.3553C8.30861 35.3327 7.13752 35.7417 6.61053 36.9178Z" fill="white"/>
<path d="M34.3067 39.9358C31.0862 44.3333 30.7934 44.998 31.7889 44.998C32.6086 44.998 38.1713 37.7881 38.1713 36.8166C38.1713 35.4871 36.766 36.6632 34.3067 39.9358Z" fill="white"/>
<path d="M63.408 40.1911C59.9533 43.5148 59.2507 44.4863 60.3632 44.4863C61.1244 44.4863 67.6825 38.4525 67.9167 37.5321C68.3266 36.0492 66.8627 36.9185 63.408 40.1911Z" fill="white"/>
<path d="M92.5684 40.1907C88.1768 43.1053 87.2399 43.9746 88.5867 43.9746C89.5236 43.9746 97.8968 38.401 97.8968 37.7874C97.8968 36.9181 96.9014 37.3783 92.5684 40.1907Z" fill="white"/>
<path d="M122.372 39.6796C117.746 41.7249 116.048 42.9521 117.863 42.9521C119.093 42.9521 128.344 38.2478 127.993 37.7876C127.642 37.2251 128.403 36.9695 122.372 39.6796Z" fill="white"/>
<path d="M151.064 39.986C148.195 40.8041 145.911 41.7246 145.911 41.9802C145.911 42.2359 146.262 42.4404 146.614 42.4404C148.078 42.4404 158.208 39.2701 158.208 38.8099C158.208 38.0429 156.451 38.3497 151.064 39.986Z" fill="white"/>
<path d="M180.868 39.6289C178.35 39.9869 176.125 40.4471 175.891 40.6005C175.012 41.3675 176.71 41.4698 181.161 40.9584C187.133 40.1914 188.187 39.9358 187.777 39.3221C187.367 38.7597 186.665 38.8108 180.868 39.6289Z" fill="white"/>
<path d="M267.118 40.3959C267.118 40.6515 267.176 40.9072 267.294 40.9072C267.352 40.9072 269.636 41.572 272.388 42.4412C277.716 44.0775 279.063 44.2821 278.712 43.4128C278.595 43.106 276.135 42.1856 273.266 41.3674C267.352 39.7311 267.118 39.68 267.118 40.3959Z" fill="white"/>
<path d="M238.075 41.3683C238.251 41.624 240.593 42.0842 243.228 42.391C245.922 42.749 248.556 43.158 249.201 43.3114C249.903 43.4648 250.196 43.3626 250.02 42.9024C249.845 42.4933 248.029 41.9308 245.687 41.5729C240.769 40.857 237.665 40.7547 238.075 41.3683Z" fill="white"/>
<path d="M208.564 41.9291C208.564 42.2359 211.023 42.4404 214.712 42.4404C218.401 42.4404 220.86 42.2359 220.86 41.9291C220.86 41.6223 218.401 41.4177 214.712 41.4177C211.023 41.4177 208.564 41.6223 208.564 41.9291Z" fill="white"/>
<path d="M4.67864 58.5987C1.86804 62.4337 1.39961 63.4053 2.39503 63.4053C2.92202 63.4053 8.89454 55.7352 8.89454 55.0704C8.89454 54.8659 8.54322 54.7125 8.19189 54.7125C7.78201 54.7125 6.20105 56.451 4.67864 58.5987Z" fill="white"/>
<path d="M33.6623 58.7517C29.7977 62.3311 29.4464 62.8936 30.7931 62.8936C31.5543 62.8936 38.7565 56.2461 38.7565 55.5302C38.7565 54.5587 36.8828 55.7348 33.6623 58.7517Z" fill="white"/>
<path d="M62.9398 58.5989C59.0166 61.2067 57.8456 62.3828 59.1337 62.3828C59.8364 62.3828 68.2682 56.8092 68.5024 56.2467C68.9708 55.0706 66.8629 55.9911 62.9398 58.5989Z" fill="white"/>
<path d="M92.5095 58.1379C87.7081 60.3367 86.3028 61.3594 88.1179 61.3594C89.289 61.3082 98.1307 57.0641 98.3649 56.3482C98.7162 55.3767 97.955 55.5812 92.5095 58.1379Z" fill="white"/>
<path d="M121.669 58.2418C119.093 59.0088 116.868 59.9292 116.751 60.236C116.634 60.5939 116.751 60.8496 117.044 60.8496C118.332 60.8496 128.345 57.6282 128.345 57.2191C128.345 56.5032 126.647 56.7589 121.669 58.2418Z" fill="white"/>
<path d="M150.888 58.1386C148.371 58.5477 146.146 58.9568 145.97 59.059C145.209 59.7749 146.907 59.8261 151.006 59.3147C157.212 58.5477 158.208 58.3432 158.208 57.7807C158.208 57.1159 156.685 57.2182 150.888 58.1386Z" fill="white"/>
<path d="M267.118 57.729C267.118 58.2404 276.662 62.8936 277.658 62.8936C279.297 62.8936 277.775 61.7175 273.266 59.621C268.23 57.2177 267.118 56.9109 267.118 57.729Z" fill="white"/>
<path d="M237.958 58.8546C238.193 59.417 247.269 62.3828 248.791 62.3828C249.201 62.3828 249.552 62.1783 249.552 61.9226C249.552 61.5135 239.539 58.2921 238.251 58.2921C237.958 58.2921 237.841 58.5478 237.958 58.8546Z" fill="white"/>
<path d="M208.271 59.3151C207.803 59.9798 208.33 60.1332 214.712 61.0025C217.757 61.4627 220.216 61.565 220.509 61.3093C221.153 60.798 220.568 60.5934 215.883 59.8776C209.267 58.906 208.623 58.8549 208.271 59.3151Z" fill="white"/>
<path d="M179.17 59.6224C177.999 60.5939 179.112 60.8496 184.85 60.8496C188.539 60.8496 190.998 60.6451 190.998 60.3383C190.998 60.0315 189.768 59.8269 188.246 59.8269C186.665 59.8269 184.147 59.6735 182.508 59.5201C180.927 59.3667 179.404 59.3667 179.17 59.6224Z" fill="white"/>
<path d="M5.90789 75.5246C1.28211 79.9733 0.520902 80.7914 0.930782 81.1494C1.39921 81.6096 8.89415 75.1667 8.89415 74.2974C8.89415 73.1724 8.07439 73.5304 5.90789 75.5246Z" fill="white"/>
<path d="M33.9554 76.599C30.0908 79.1046 28.3927 80.792 29.7395 80.792C30.2079 80.792 38.6982 75.1672 39.1081 74.6048C39.2252 74.4002 39.1667 74.0934 38.9325 73.9912C38.6397 73.8378 36.4146 75.0138 33.9554 76.599Z" fill="white"/>
<path d="M62.9393 76.4969C58.6063 78.5423 57.0253 79.7695 58.6063 79.7695C59.5431 79.7695 69.2046 75.0652 69.2046 74.605C69.2046 73.7357 67.7407 74.1448 62.9393 76.4969Z" fill="white"/>
<path d="M92.2169 76.5477C89.055 77.417 87.3569 78.1329 87.3569 78.6442C87.3569 79.0533 87.7083 79.2578 88.1181 79.1556C88.4695 79.0022 90.9873 78.2863 93.6222 77.5193C98.3066 76.1387 100.239 75.116 98.0723 75.2183C97.4868 75.2183 94.8519 75.8319 92.2169 76.5477Z" fill="white"/>
<path d="M267.411 75.6282C267.059 76.1395 275.316 81.8154 276.428 81.8154C277.833 81.8154 276.897 80.8439 272.681 78.0826C267.938 74.9635 267.938 74.9123 267.411 75.6282Z" fill="white"/>
<path d="M125.358 75.9338C125.183 76.036 123.25 76.394 121.084 76.6496C118.859 76.9053 116.927 77.2633 116.751 77.4167C116.048 78.0814 117.161 78.1837 121.025 77.7235C127.759 76.9053 128.989 76.6496 128.637 76.1383C128.286 75.6781 125.827 75.4736 125.358 75.9338Z" fill="white"/>
<path d="M237.607 76.1377C237.08 76.8025 247.795 81.5068 248.498 80.8932C248.908 80.5353 248.147 79.9216 246.097 79.0524C244.458 78.2854 242.174 77.2627 241.062 76.7002C238.778 75.5752 238.075 75.473 237.607 76.1377Z" fill="white"/>
<path d="M208.564 77.3644C209.969 78.4893 219.162 80.9438 219.807 80.3813C220.158 80.0745 218.46 79.3075 214.888 78.2848C208.798 76.4951 207.217 76.2906 208.564 77.3644Z" fill="white"/>
<path d="M178.819 77.8255C179.111 78.5414 190.354 80.2288 190.822 79.6152C191.232 79.0016 191.173 78.9505 185.377 78.0301C178.936 77.0585 178.526 77.0585 178.819 77.8255Z" fill="white"/>
<path d="M149.424 78.4908C149.424 79.1044 150.42 79.2578 155.631 79.2578C160.315 79.2578 161.779 79.1044 161.604 78.5931C161.428 78.184 159.496 77.9283 155.397 77.8261C150.361 77.7238 149.424 77.8261 149.424 78.4908Z" fill="white"/>
<path d="M4.50265 94.9044C-0.0645748 97.9724 -1.87975 100.58 2.51181 97.7168C3.91711 96.7963 6.08361 95.4157 7.25469 94.6999C9.18698 93.4726 10.241 91.9897 9.06987 92.092C8.7771 92.092 6.78626 93.3704 4.50265 94.9044Z" fill="white"/>
<path d="M32.9606 94.9557C29.623 96.5409 28.2762 97.4102 28.6861 97.7681C29.3888 98.3817 38.816 94.1887 39.2259 93.166C39.5772 92.1433 38.1133 92.6035 32.9606 94.9557Z" fill="white"/>
<path d="M267.47 93.0122C267.001 93.677 273.676 100.324 275.199 100.631C276.663 100.989 275.784 99.8131 271.92 96.1314C269.109 93.4724 267.762 92.552 267.47 93.0122Z" fill="white"/>
<path d="M62.5297 95.0584C59.9533 95.8254 57.7283 96.7458 57.6112 97.1549C57.4355 97.6151 57.6697 97.7174 58.3138 97.5128C58.7822 97.3594 61.4757 96.5924 64.2278 95.8254C66.9798 95.1095 69.2049 94.2914 69.2049 94.0357C69.2049 93.3198 67.4482 93.5755 62.5297 95.0584Z" fill="white"/>
<path d="M237.841 94.0354C237.841 94.7002 246.156 100.223 247.093 100.223C248.498 100.223 247.678 99.4045 243.696 96.7455C239.363 93.882 237.841 93.1662 237.841 94.0354Z" fill="white"/>
<path d="M92.0994 94.9041C87.1809 95.62 86.3026 95.8757 86.8881 96.387C87.3566 96.7961 99.0674 95.0064 99.0674 94.4951C99.0674 93.9837 98.1891 94.0349 92.0994 94.9041Z" fill="white"/>
<path d="M207.979 94.597C207.979 95.2106 218.518 99.9149 218.987 99.4547C219.514 98.9945 218.577 98.432 213.834 96.1821C209.384 94.0856 207.979 93.6765 207.979 94.597Z" fill="white"/>
<path d="M178.701 95.5695C178.701 96.1831 189.768 99.4045 190.236 98.9955C190.939 98.433 189.592 97.8194 184.849 96.4388C179.814 95.007 178.701 94.8536 178.701 95.5695Z" fill="white"/>
<path d="M148.838 96.0806C148.838 96.592 149.951 96.8476 155.865 97.6658C160.666 98.2794 162.13 98.3305 161.428 97.7169C160.842 97.2567 151.766 95.6204 149.834 95.6204C149.307 95.6204 148.838 95.8249 148.838 96.0806Z" fill="white"/>
<path d="M119.971 96.4388C118.976 97.3081 120.674 97.666 126.061 97.666C130.511 97.666 131.916 97.5126 131.74 97.0013C131.448 96.3365 120.732 95.8252 119.971 96.4388Z" fill="white"/>
<path d="M267.704 111.062C267.704 111.42 269.05 113.517 270.69 115.767C272.739 118.528 273.852 119.602 274.262 119.244C274.672 118.886 273.91 117.454 271.802 114.591C268.933 110.705 267.704 109.631 267.704 111.062Z" fill="white"/>
<path d="M4.38578 113.057C2.04362 114.182 0.111328 115.358 0.111328 115.614C0.111328 115.87 0.228436 116.074 0.404099 116.074C1.34097 116.074 10.0655 111.881 10.0655 111.472C10.0655 110.552 8.66024 110.961 4.38578 113.057Z" fill="white"/>
<path d="M33.6623 113.212C30.2662 114.183 28.2168 115.001 28.2168 115.462C28.2168 115.871 28.5681 116.075 28.978 115.973C29.3293 115.82 31.7886 115.104 34.365 114.286C39.2835 112.803 40.3375 112.24 39.5178 111.882C39.2835 111.729 36.59 112.342 33.6623 113.212Z" fill="white"/>
<path d="M237.841 111.778C237.841 112.392 245.219 119.142 245.922 119.142C247.093 119.142 246.8 118.733 242.994 115C239.89 111.983 237.841 110.704 237.841 111.778Z" fill="white"/>
<path d="M208.096 112.495C208.33 113.057 216.762 118.631 217.464 118.631C218.811 118.631 217.523 117.353 213.658 114.796C209.618 112.188 207.627 111.319 208.096 112.495Z" fill="white"/>
<path d="M62.2954 113.262C58.1966 113.825 56.9669 114.234 57.611 114.796C58.0209 115.205 68.7949 113.518 69.4975 112.955C70.2002 112.342 67.6823 112.444 62.2954 113.262Z" fill="white"/>
<path d="M178.701 113.006C178.701 113.722 189.124 118.222 189.534 117.659C189.826 117.199 180.575 112.495 179.345 112.495C178.994 112.495 178.701 112.699 178.701 113.006Z" fill="white"/>
<path d="M149.073 113.569C148.604 114.285 148.37 114.183 154.635 115.972C159.905 117.506 161.427 117.66 160.198 116.586C159.144 115.666 149.482 113.058 149.073 113.569Z" fill="white"/>
<path d="M119.562 114.489C119.562 115.103 120.206 115.205 126.061 116.023C130.745 116.688 131.858 116.739 131.858 116.126C131.858 115.717 127.993 114.95 122.372 114.234C120.498 114.029 119.562 114.08 119.562 114.489Z" fill="white"/>
<path d="M90.5777 115.051C90.3435 115.357 92.4514 115.562 96.5502 115.511C101.644 115.46 102.347 115.357 100.239 114.999C96.4331 114.437 90.9875 114.437 90.5777 115.051Z" fill="white"/>
<path d="M267.704 128.705C267.704 128.96 268.64 131.057 269.753 133.46C271.685 137.602 272.973 139.136 272.973 137.244C272.973 135.659 269.285 128.347 268.465 128.347C268.055 128.347 267.704 128.5 267.704 128.705Z" fill="white"/>
<path d="M238.017 129.573C238.895 131.618 243.813 137.55 244.633 137.55C245.687 137.55 245.687 137.601 241.998 132.59C240.534 130.544 238.953 128.857 238.485 128.857C238.075 128.857 237.841 129.164 238.017 129.573Z" fill="white"/>
<path d="M208.271 129.88C207.861 130.443 214.946 137.448 216.059 137.499C217.523 137.601 216.703 136.323 213.424 133.255C209.559 129.676 208.798 129.164 208.271 129.88Z" fill="white"/>
<path d="M4.85377 131.363C2.45305 132.13 0.3451 133.051 0.227992 133.409C0.0523292 133.869 0.3451 133.971 1.28197 133.716C7.07883 132.079 10.0651 131.108 10.1236 130.648C10.1822 129.829 9.36244 129.932 4.85377 131.363Z" fill="white"/>
<path d="M178.701 130.851C178.701 131.413 187.192 137.038 188.07 137.038C189.475 137.038 188.363 135.964 184.264 133.254C180.048 130.493 178.701 129.879 178.701 130.851Z" fill="white"/>
<path d="M32.0814 131.618C29.5635 131.976 27.924 132.437 27.7483 132.897C27.5141 133.459 27.8655 133.562 29.1536 133.306C30.0905 133.152 32.9011 132.743 35.4189 132.385C37.8782 132.027 39.9276 131.516 39.9276 131.312C39.9276 130.8 37.117 130.903 32.0814 131.618Z" fill="white"/>
<path d="M149.131 131.362C149.424 131.771 159.144 136.526 159.73 136.526C159.847 136.526 159.964 136.22 159.964 135.862C159.964 135.555 157.739 134.276 155.104 133.049C150.361 130.953 148.429 130.39 149.131 131.362Z" fill="white"/>
<path d="M119.561 132.08C119.561 132.847 130.57 136.119 131.038 135.454C131.389 134.943 130.394 134.585 124.012 132.642C119.21 131.21 119.561 131.261 119.561 132.08Z" fill="white"/>
<path d="M90.2852 132.898C90.2852 133.409 91.1635 133.614 97.4873 134.534C100.356 134.943 101.703 134.943 102.113 134.585C102.816 133.972 102.347 133.869 96.082 133C91.3391 132.335 90.2852 132.284 90.2852 132.898Z" fill="white"/>
<path d="M60.7148 133.46C60.5391 133.715 60.7148 134.125 61.1832 134.227C62.5885 134.738 73.0111 134.278 73.0111 133.715C73.0111 133 61.2418 132.744 60.7148 133.46Z" fill="white"/>
<path d="M268.289 147.01C268.289 149.464 270.28 156.47 271.041 156.47C271.978 156.47 271.978 156.163 270.748 150.896C270.163 148.493 269.402 146.499 268.992 146.345C268.64 146.243 268.289 146.55 268.289 147.01Z" fill="white"/>
<path d="M238.426 147.368C238.426 148.186 241.881 155.498 242.584 156.163C243.93 157.441 243.52 154.782 241.764 151.152C240.066 147.47 238.426 145.629 238.426 147.368Z" fill="white"/>
<path d="M208.564 147.725C208.564 148.645 214.595 156.469 215.063 156.162C216 155.702 215.649 154.935 212.663 151.1C209.969 147.623 208.564 146.447 208.564 147.725Z" fill="white"/>
<path d="M179.053 148.187C178.584 148.851 185.552 155.806 186.782 155.908C188.246 156.01 187.426 154.834 183.503 151.255C180.927 148.903 179.346 147.829 179.053 148.187Z" fill="white"/>
<path d="M149.19 148.748C148.897 149.106 151.942 151.458 157.505 155.088C157.973 155.395 158.442 155.446 158.793 155.14C159.262 154.731 157.563 153.401 150.186 148.697C149.834 148.441 149.366 148.441 149.19 148.748Z" fill="white"/>
<path d="M3.80024 149.925C1.75084 150.18 0.111328 150.641 0.111328 150.947C0.111328 151.305 0.989641 151.356 2.62916 151.152C3.9759 150.947 6.20096 150.641 7.60626 150.487C8.95301 150.334 10.0655 149.976 10.0655 149.771C10.0655 149.209 8.71879 149.26 3.80024 149.925Z" fill="white"/>
<path d="M119.562 149.669C119.562 150.232 128.696 154.425 129.809 154.425C131.682 154.425 130.453 153.556 125.71 151.459C120.733 149.311 119.562 148.953 119.562 149.669Z" fill="white"/>
<path d="M89.9912 150.282C89.5813 150.947 89.8741 151.049 96.0223 152.788C99.0085 153.657 101.526 154.117 101.702 153.913C102.112 153.299 101.468 153.043 95.7295 151.305C89.8741 149.566 90.4596 149.669 89.9912 150.282Z" fill="white"/>
<path d="M60.4219 151.254C60.4219 151.663 61.9443 151.919 70.9031 153.248C72.4255 153.453 72.8354 153.402 72.6011 152.839C72.1913 151.766 60.4219 150.232 60.4219 151.254Z" fill="white"/>
<path d="M31.2616 151.97C31.613 152.788 43.031 152.737 43.3238 151.919C43.4995 151.51 41.6257 151.356 37.2927 151.356C32.7255 151.356 31.086 151.51 31.2616 151.97Z" fill="white"/>
<path d="M268.64 164.498C268.465 164.652 268.289 166.953 268.289 169.612C268.289 173.498 268.465 174.367 269.167 174.367C269.87 174.367 270.046 173.498 270.046 169.561C270.046 165.112 269.636 163.629 268.64 164.498Z" fill="white"/>
<path d="M238.778 165.061C238.602 165.316 238.895 167.055 239.364 169.049C239.832 170.992 240.359 173.089 240.535 173.754C241.062 176.003 242.057 174.316 241.647 171.862C240.652 165.726 239.774 163.68 238.778 165.061Z" fill="white"/>
<path d="M208.564 165.316C208.564 165.418 209.442 167.412 210.555 169.816C211.726 172.372 212.956 174.162 213.483 174.264C214.478 174.469 214.536 174.622 211.199 167.31C210.672 166.134 209.852 165.162 209.384 165.162C208.915 165.162 208.564 165.214 208.564 165.316Z" fill="white"/>
<path d="M179.345 166.747C179.696 167.361 181.043 169.253 182.331 170.991C184.439 173.855 185.493 174.673 185.903 173.804C186.196 173.139 180.34 165.673 179.521 165.673C178.818 165.673 178.759 165.878 179.345 166.747Z" fill="white"/>
<path d="M149.424 166.799C149.483 167.924 156.802 174.571 157.563 174.111C158.032 173.855 156.978 172.526 154.284 170.071C149.951 166.134 149.424 165.776 149.424 166.799Z" fill="white"/>
<path d="M119.796 167.26C119.62 167.567 119.678 167.976 119.971 168.181C122.548 169.715 127.173 172.936 127.466 173.345C127.935 174.01 129.516 174.01 129.516 173.345C129.516 172.476 120.264 166.647 119.796 167.26Z" fill="white"/>
<path d="M90.0503 167.67C89.5819 168.283 90.5188 168.846 96.0229 171.249C99.5947 172.834 100.824 173.141 100.824 172.578C100.824 171.709 90.5188 167.005 90.0503 167.67Z" fill="white"/>
<path d="M60.422 168.844C60.422 169.253 62.9399 170.173 66.2774 171.094C74.0066 173.19 74.2994 172.065 66.6288 169.815C60.3049 167.975 60.422 168.026 60.422 168.844Z" fill="white"/>
<path d="M30.8517 169.304C30.6761 169.509 30.7346 169.815 31.0274 169.969C31.4373 170.173 42.1527 171.81 43.1481 171.81C43.9093 171.81 43.3238 170.838 42.4455 170.582C39.9276 169.918 31.086 168.895 30.8517 169.304Z" fill="white"/>
<path d="M1.5748 170.277C1.34059 170.584 3.50709 170.788 7.66444 170.788C11.5876 170.788 14.1639 170.584 14.1639 170.277C14.1639 169.97 11.7632 169.765 8.07431 169.765C4.61962 169.765 1.75047 169.97 1.5748 170.277Z" fill="white"/>
<path d="M239.012 187.61C239.012 191.905 239.188 192.774 239.891 192.774C240.652 192.774 240.769 192.007 240.652 187.814C240.535 184.44 240.242 182.803 239.773 182.65C239.188 182.496 239.012 183.724 239.012 187.61Z" fill="white"/>
<path d="M268.348 184.952C267.118 190.117 266.884 192.929 267.762 192.673C268.582 192.418 270.807 184.339 270.339 183.162C269.812 181.833 268.933 182.651 268.348 184.952Z" fill="white"/>
<path d="M179.579 183.622C179.287 184.389 182.39 191.496 183.444 192.468C184.791 193.746 184.498 191.905 182.8 188.07C180.633 183.315 180.048 182.548 179.579 183.622Z" fill="white"/>
<path d="M209.149 183.417C209.149 183.621 209.559 185.769 210.028 188.172C210.496 190.576 210.906 192.57 210.906 192.621C210.906 192.723 211.316 192.774 211.784 192.774C212.838 192.774 212.838 193.03 211.609 187.712C211.023 185.309 210.262 183.315 209.852 183.161C209.501 183.059 209.149 183.161 209.149 183.417Z" fill="white"/>
<path d="M149.483 184.44C149.541 185.207 155.046 192.468 155.748 192.672C157.095 193.03 156.392 191.445 153.64 187.968C151.181 184.746 149.366 183.264 149.483 184.44Z" fill="white"/>
<path d="M119.62 185.053C119.971 185.922 127.232 192.774 127.818 192.774C129.047 192.774 128.11 191.394 124.714 188.223C121.318 185.104 119.152 183.724 119.62 185.053Z" fill="white"/>
<path d="M90.2852 185.719C90.2852 186.742 99.0683 192.469 99.7709 191.855C100.122 191.549 98.7755 190.373 96.0235 188.583C90.6365 185.055 90.2852 184.901 90.2852 185.719Z" fill="white"/>
<path d="M60.5388 186.229C60.773 186.945 69.6147 191.189 70.9028 191.24C72.5424 191.24 70.1416 189.604 65.5744 187.61C60.5973 185.411 60.246 185.309 60.5388 186.229Z" fill="white"/>
<path d="M30.8517 187.1C30.4418 187.714 30.2661 187.663 36.7071 189.452C41.8598 190.833 42.8553 190.986 42.8553 190.271C42.8553 189.964 40.6302 189.197 37.8782 188.43C35.1261 187.714 32.5497 186.998 32.0813 186.845C31.6129 186.691 31.0859 186.793 30.8517 187.1Z" fill="white"/>
<path d="M1.28174 188.072C1.28174 188.327 3.56535 188.788 6.4345 189.146C9.2451 189.504 11.9971 189.913 12.5827 190.015C13.1682 190.168 13.5781 190.015 13.5781 189.606C13.5781 189.094 12.1143 188.685 8.71812 188.276C2.97981 187.56 1.28174 187.509 1.28174 188.072Z" fill="white"/>
<path d="M209.442 201.467C209.032 202.03 209.091 208.984 209.501 210.262C209.677 210.774 210.086 211.183 210.379 211.183C210.672 211.183 210.906 208.882 210.906 206.069C210.906 201.467 210.438 200.035 209.442 201.467Z" fill="white"/>
<path d="M239.539 201.06C238.837 202.799 237.49 210.52 237.841 210.827C238.544 211.491 238.895 210.673 239.891 206.582C240.944 202.338 241.003 200.958 240.183 200.958C239.891 200.958 239.598 201.009 239.539 201.06Z" fill="white"/>
<path d="M268.816 202.336C267.001 206.325 265.362 210.211 265.362 210.415C265.362 210.569 265.713 210.671 266.123 210.671C266.767 210.671 270.163 204.33 270.749 202.029C271.1 200.649 269.46 200.904 268.816 202.336Z" fill="white"/>
<path d="M179.755 201.723C179.462 201.979 180.223 205.814 181.336 210.007C181.921 212.154 182.975 211.336 182.624 208.984C181.687 203.155 180.75 200.854 179.755 201.723Z" fill="white"/>
<path d="M119.913 202.387C119.62 202.796 124.89 210.313 125.886 210.875C127.525 211.744 126.823 209.955 124.305 206.478C121.377 202.54 120.44 201.671 119.913 202.387Z" fill="white"/>
<path d="M150.361 203.872C150.888 204.946 151.825 207.042 152.469 208.474C153.64 211.133 154.694 212.002 154.694 210.366C154.694 208.832 151.064 201.98 150.244 201.98C149.542 201.98 149.542 202.287 150.361 203.872Z" fill="white"/>
<path d="M90.2852 203.565C90.2852 204.588 97.663 210.826 98.5413 210.57C99.0683 210.417 98.0729 209.139 95.3208 206.684C91.3391 203.105 90.2852 202.44 90.2852 203.565Z" fill="white"/>
<path d="M60.7732 203.972C60.4219 204.433 68.9708 210.62 69.9662 210.671C70.9617 210.671 70.259 209.239 68.7951 208.319C62.8812 204.535 61.066 203.512 60.7732 203.972Z" fill="white"/>
<path d="M30.9108 204.485C30.5594 204.996 40.1623 209.649 41.5676 209.649C43.2071 209.649 41.9775 208.729 37.2346 206.581C31.0864 203.769 31.3206 203.871 30.9108 204.485Z" fill="white"/>
<path d="M1.28174 205.558C1.28174 205.814 1.34029 206.069 1.4574 206.069C1.51595 206.069 3.91668 206.734 6.72727 207.603C12.2899 209.24 14.2808 209.547 13.1682 208.575C12.5827 208.064 2.8627 205.047 1.75017 205.047C1.4574 205.047 1.28174 205.251 1.28174 205.558Z" fill="white"/>
<path d="M179.99 224.171C180.224 230.563 181.336 230.716 181.336 224.376C181.336 221.001 181.102 219.62 180.575 219.467C179.99 219.313 179.872 220.336 179.99 224.171Z" fill="white"/>
<path d="M210.144 219.722C209.559 220.54 207.919 228.671 208.212 228.978C208.973 229.591 209.617 228.211 210.554 224.273C211.081 222.074 211.491 220.08 211.491 219.825C211.491 219.262 210.496 219.211 210.144 219.722Z" fill="white"/>
<path d="M237.958 223.763C236.904 226.166 236.202 228.365 236.436 228.672C237.022 229.439 237.549 228.672 239.539 224.325C241.589 219.826 241.647 219.365 240.652 219.365C240.242 219.365 239.012 221.36 237.958 223.763Z" fill="white"/>
<path d="M267.235 223.609C263.956 228.263 263.839 228.569 264.951 228.569C265.654 228.569 271.451 220.899 271.392 220.081C271.158 218.7 269.87 219.825 267.235 223.609Z" fill="white"/>
<path d="M120.498 220.335C120.088 220.847 123.367 228.466 124.304 229.284C125.651 230.562 125.417 228.721 123.66 224.733C121.669 220.284 121.084 219.466 120.498 220.335Z" fill="white"/>
<path d="M150.36 222.024C151.239 226.575 152.059 229.234 152.82 229.489C153.757 229.745 153.698 229.131 152.468 224.274C151.883 222.024 151.063 220.081 150.712 219.978C150.185 219.825 150.068 220.336 150.36 222.024Z" fill="white"/>
<path d="M90.636 220.797C90.1676 221.462 96.1401 229.643 96.7842 229.285C97.604 228.876 97.2526 228.161 94.0907 223.968C91.3387 220.235 91.163 220.081 90.636 220.797Z" fill="white"/>
<path d="M60.8317 221.718C60.3047 222.178 67.5069 229.081 68.5023 229.081C69.6734 229.081 69.2635 228.467 65.5161 224.786C62.1785 221.462 61.5929 221.104 60.8317 221.718Z" fill="white"/>
<path d="M30.9105 222.331C30.4421 222.995 40.1035 229.132 40.7476 228.569C41.0404 228.313 41.2161 228.007 41.0404 227.904C39.4009 226.677 31.8474 221.922 31.5546 221.922C31.379 221.922 31.0862 222.126 30.9105 222.331Z" fill="white"/>
<path d="M1.57501 222.945C1.10657 223.609 11.1193 228.212 12.2904 227.802C12.9931 227.547 12.1148 226.933 8.89428 225.45C3.27308 222.791 1.98489 222.382 1.57501 222.945Z" fill="white"/>
<path d="M150.595 242.887C150.595 245.955 150.829 248 151.18 248C151.532 248 151.766 245.955 151.766 242.887C151.766 239.819 151.532 237.773 151.18 237.773C150.829 237.773 150.595 239.819 150.595 242.887Z" fill="white"/>
<path d="M180.224 238.642C179.579 240.789 178.584 247.079 178.935 247.334C179.111 247.539 179.404 247.539 179.579 247.437C179.931 247.079 181.629 240.022 181.629 238.744C181.629 237.517 180.633 237.466 180.224 238.642Z" fill="white"/>
<path d="M208.681 241.865C207.627 244.166 206.808 246.416 206.808 246.876C206.808 248.41 208.33 246.467 209.911 242.888C211.785 238.643 211.902 238.183 211.141 237.928C210.789 237.825 209.677 239.615 208.681 241.865Z" fill="white"/>
<path d="M237.9 241.659C234.972 245.596 234.328 246.977 235.44 246.977C236.436 246.977 242.115 238.744 241.471 238.181C241.061 237.824 239.89 239 237.9 241.659Z" fill="white"/>
<path d="M91.0459 239.767C91.6315 242.221 95.0862 248.357 95.3789 247.386C95.6717 246.363 92.0999 238.284 91.2801 238.284C90.9874 238.284 90.8703 238.949 91.0459 239.767Z" fill="white"/>
<path d="M120.908 240.432C121.611 244.676 122.606 248 123.192 248C123.602 248 123.66 247.08 123.426 245.29C122.782 241.301 121.845 238.285 121.143 238.285C120.791 238.285 120.733 239.154 120.908 240.432Z" fill="white"/>
<path d="M266.942 242.068C264.776 244.165 263.019 246.006 263.019 246.159C263.019 246.312 263.371 246.466 263.839 246.466C265.069 246.466 272.095 239.358 271.393 238.745C271.041 238.438 269.46 239.614 266.942 242.068Z" fill="white"/>
<path d="M61.0073 239.46C61.0073 240.585 66.3943 247.488 67.2726 247.488C68.2095 247.488 68.268 247.59 64.6377 242.477C62.0613 238.949 61.0073 238.028 61.0073 239.46Z" fill="white"/>
<path d="M31.1445 240.177C31.1445 240.433 32.8426 242.171 34.8334 244.114C37.3513 246.569 38.7566 247.54 39.2836 247.285C39.8105 246.978 38.9322 245.853 36.0631 243.347C32.3156 240.024 31.1445 239.308 31.1445 240.177Z" fill="white"/>
<path d="M1.63353 240.789C1.2822 241.25 9.47978 246.977 10.5923 246.977C12.0562 246.977 11.0607 245.954 7.31328 243.551C2.33618 240.38 2.04341 240.227 1.63353 240.789Z" fill="white"/>
</svg>
