<svg width="230" height="56" viewBox="0 0 230 56" fill="none" xmlns="http://www.w3.org/2000/svg">
<g clip-path="url(#clip0_133_1609)">
<g clip-path="url(#clip1_133_1609)">
<path d="M39.6959 52.3862H0V-0.00195312H27.5779L39.6984 12.1185V52.3862H39.6959ZM1.23226 51.154H38.4661V12.6287L27.0677 1.2303H1.23226V51.154Z" fill="white"/>
<path d="M52.0651 0.614258H49.8667V54.7522H52.0651V0.614258Z" fill="white"/>
<path d="M42.1705 42.7598H14.085V54.7521H42.1705V42.7598Z" fill="white"/>
<path d="M17.7171 7.52682C14.5306 7.49478 12.8818 9.1805 12.8177 12.6383C13.1923 15.7558 16.719 15.7903 21.4287 14.6666C27.5974 14.5432 28.7384 18.9104 29.4803 23.63C28.5734 34.2052 21.0098 36.3025 18.2791 36.5834C14.8756 36.8324 12.4357 35.1639 12.2558 29.0222H26.5401C26.2641 20.7563 22.1607 18.006 16.1769 17.9591C9.18255 17.7939 4.13524 21.7397 4.13524 29.0222C4.01201 35.9057 7.2208 40.3837 16.1769 40.7139C24.8791 40.7336 31.9325 32.9433 32.423 23.3489C32.423 12.9167 24.5093 8.43623 17.7171 7.52682ZM15.4128 20.357C18.1904 20.357 17.9094 26.193 17.9094 26.193H12.4603C12.4603 26.193 12.6378 20.357 15.4128 20.357Z" fill="white"/>
<path d="M108.848 15.0686C112.558 15.0686 115.566 12.3565 115.566 9.01091C115.566 5.66529 112.558 2.95312 108.848 2.95312C105.137 2.95312 102.129 5.66529 102.129 9.01091C102.129 12.3565 105.137 15.0686 108.848 15.0686Z" fill="white"/>
<path d="M89.9573 19.2505H93.1069V38.4688H89.9573C89.4027 33.6286 87.5051 30.5084 84.2371 30.5626H78.5811L78.4676 44.1545C78.3272 47.2745 79.7738 50.323 81.7676 51.4814L81.7726 52.0951H62.8994V51.5604C64.5654 50.3551 66.2412 48.63 66.2412 44.768L66.3053 13.8533C66.3102 10.6026 64.3608 7.6969 62.8994 6.93537V6.38086H98.0261C98.7555 6.38086 99.3471 6.97234 99.3471 7.70183V19.2703H96.1506C94.9404 14.8539 91.8993 10.2699 89.1563 10.154H80.809C79.5004 10.154 78.4406 11.2138 78.4406 12.5224V26.8954H84.8064C87.4287 26.7698 89.8439 23.4057 89.9573 19.2505Z" fill="white"/>
<path d="M115.334 44.5117C115.24 46.6361 117.205 50.8899 118.56 51.6761L118.565 52.0926H100.749V51.7279C101.883 50.9071 104.148 47.447 104.148 44.8198L104.365 27.6249C104.367 25.4117 102.625 23.7211 98.7578 23.5462V20.1377L113.742 19.805C114.378 19.7902 114.903 20.2955 114.913 20.9312L115.334 44.5117Z" fill="white"/>
<path d="M176.278 51.7329V52.0952H194.095L194.09 51.6786C192.735 50.8901 190.768 46.6363 190.865 44.5119L190.694 28.1057H190.696C190.696 28.0933 190.694 28.081 190.691 28.0686C190.276 23.2653 187.027 19.2136 180.811 18.9228C180.48 18.913 180.158 18.913 179.84 18.9254C174.576 19.1003 171.15 22.0799 169.445 24.0589L169.236 4.08158C169.223 3.44574 168.699 2.94298 168.064 2.9553L153.08 3.288V6.69643C156.947 6.8714 158.69 8.56206 158.687 10.7752L158.47 44.8249C158.47 47.4521 156.205 50.9122 155.072 51.7329V52.0952H172.888L172.883 51.6786C171.528 50.8901 169.56 46.6363 169.657 44.5144L169.521 31.5289C169.492 28.7637 171.205 26.2252 173.832 25.3701C175.564 24.8057 177.316 25.0546 178.573 26.4076C179.377 27.2726 179.779 28.4384 179.771 29.6189L179.675 44.8249C179.678 47.4521 177.411 50.9098 176.278 51.7329Z" fill="white"/>
<path d="M216.675 46.2744C211.696 46.6392 208.129 44.1969 207.865 35.2137H228.759C228.355 23.1228 222.353 19.1007 213.599 19.0317C203.369 18.7902 195.985 24.5621 195.985 35.2137C195.806 45.2813 200.498 51.832 213.599 52.315C219.933 52.3298 225.671 49.5128 229.924 44.9511L227.258 41.1975C223.507 44.9461 218.947 46.0403 216.675 46.2744ZM212.483 22.5412C216.544 22.5412 216.136 31.0783 216.136 31.0783H208.165C208.165 31.0783 208.424 22.5412 212.483 22.5412Z" fill="white"/>
<path d="M149.951 40.9092C147.168 45.1285 144.019 46.8832 142.103 46.9128C137.852 46.9743 132.724 43.4748 133.126 35.2162L133.424 31.0783C133.424 31.0783 133.884 22.9035 137.943 22.9035C140.583 22.9035 140.521 25.5997 140.295 27.7414C140.056 30.0112 141.514 32.1207 143.73 32.6605C144.048 32.7369 144.391 32.801 144.758 32.8453C145.524 32.9365 146.227 32.9094 146.86 32.8059C149.64 32.3549 151.624 29.8682 151.594 27.0512C151.538 21.6663 146.144 19.0884 138.861 19.0317C128.631 18.7902 121.247 24.5621 121.247 35.2137C121.067 45.2813 125.759 51.832 138.861 52.315C145.194 52.3298 150.294 48.3471 153.08 43.1593L149.951 40.9092Z" fill="white"/>
</g>
</g>
<defs>
<clipPath id="clip0_133_1609">
<rect width="230" height="55.6" fill="white"/>
</clipPath>
<clipPath id="clip1_133_1609">
<rect width="230" height="55.6044" fill="white" transform="translate(0 -0.00195312)"/>
</clipPath>
</defs>
</svg>
